<?xml version="1.0" encoding="UTF-8"?>
<svg id="_图层_2" data-name="图层 2" xmlns="http://www.w3.org/2000/svg" viewBox="0 0 357 186.5">
  <g id="_图层_1-2" data-name="图层 1">
    <g>
      <path d="m10,115.5L0,98.5C27,63.5,45,30.5,62.01,0l19,2.4c-2.8,8.4-6.2,16.4-9.8,24.2h82v17.4c-15.8,65.6-59.61,113.3-132.21,142.5l-11.59-17.7c31-12.4,56.4-27.8,76.4-46.2-14.81-12.1-6.81-6.1-22.81-17.1l14-12c18,12,6,4,22.21,15.3,16.2-18.8,27.8-40,34.6-63.6H60.81c-14,21.6-29.81,44.3-50.81,70.3Z"/>
      <path d="m227.36,79.85l-13.49,13.49s-.08.03-.11,0c-7.18-9.17-17.15-19.33-30.08-30.28-.03-.03-.04-.08,0-.11l13.49-12.9s.07-.03.1,0c11.76,9.77,21.73,19.74,30.1,29.7.03.03.02.07,0,.1Zm2.23,32.22c-6.99,25.35-14.97,49.1-23.75,71.46-.02.04-.06.06-.1.04l-18.86-8.34s-.05-.06-.04-.1c9.98-22.75,18.56-45.91,26.15-69.46.01-.04.06-.06.1-.05l16.46,6.35s.06.05.05.09Zm6.37-78.22l-13.49,13.29s-.08.03-.11,0c-7.59-9.57-18.54-19.73-32.48-30.88-.04-.03-.04-.08,0-.11l13.69-13.1s.07-.03.1,0c12.76,10.37,23.52,20.54,32.3,30.7.03.03.02.07,0,.1Zm121.05,35.48s-.03.07-.07.07h-93.25s-.07.03-.07.07v12.93c-.2,40.56.43,100.13.39,100.1h-19v-11c0-24,0-51.73.21-89.1V7.67s.03-.07.07-.07l111.72-.1m-93.39,17.58v27.05s.03.07.07.07h74.85s.07-.03.07-.07v-27.05s-.03-.07-.07-.07h-74.85s-.07.03-.07.07Zm33.39,138.42h42c3,0,5-3.4,5-5,0-2,0-16,0-16,0-.04-.04,0,0,0h12.93s.07.03.07.07v33.88c0,3.35-2.7,6.08-6.06,6.1-2.78.02-6.2.04-9.54.04h-40.8c-14.4,0-21.6-7.2-21.6-21.2v-78.92s.03-.07.07-.07h18.05s.07.03.07.07v25.63s.05.08.09.07c21.72-5.68,42.05-10.77,59.6-16.64.05-.02.1.02.1.07v16.84s-.02.06-.06.07c-19.97,5.49-37.93,10.98-59.68,16.87-.03,0-.06.04-.06.07l-.21,38.04Z"/>
    </g>
  </g>
</svg>