<?xml version="1.0" encoding="UTF-8"?>
<svg id="_图层_2" data-name="图层 2" xmlns="http://www.w3.org/2000/svg" viewBox="0 0 187.98 188">
  <defs>
    <style>
      .cls-1 {
        fill: #00c893;
      }
    </style>
  </defs>
  <g id="_图层_1-2" data-name="图层 1">
    <path class="cls-1" d="m93.99,0C42.08,0,0,42.08,0,93.99c0,3.76.23,7.43.67,11.01,5.1-1.05,10.37-1.61,15.78-1.61,42.82,0,77.54,34.72,77.54,77.54,0,2.37-.12,4.72-.33,7.04.11,0,.22,0,.33.01,39.57.9,66.23-27.16,69.16-30.35,3.88-4.21,24.83-28.76,24.83-63.64C187.98,42.08,145.9,0,93.99,0Zm53.01,68c-4.42,0-8-3.58-8-8s3.58-8,8-8,8,3.58,8,8-3.58,8-8,8Z"/>
  </g>
</svg>